<svg width="26" height="26" viewBox="0 0 26 26" fill="none" xmlns="http://www.w3.org/2000/svg">
<path d="M17.5002 10.8333L16.925 10.7445C16.9111 10.822 16.9156 10.9015 16.9381 10.9773C16.9606 11.0531 17.0006 11.1234 17.0553 11.1834C17.1101 11.2434 17.1782 11.2916 17.255 11.3247C17.3318 11.3578 17.4155 11.3749 17.5002 11.375V10.8333ZM4.66683 10.8333V10.2916C4.51212 10.2916 4.36375 10.3487 4.25435 10.4503C4.14495 10.5519 4.0835 10.6896 4.0835 10.8333H4.66683ZM7.00016 22.2083H20.2535V21.125H7.00016V22.2083ZM21.6535 10.2916H17.5002V11.375H21.6535V10.2916ZM18.0753 10.9221L19.0157 5.68421L17.8653 5.50546L16.925 10.7445L18.0753 10.9221ZM17.2902 3.79163H17.0417V4.87496H17.2902V3.79163ZM13.6432 5.48054L10.7078 9.56796L11.6785 10.1692L14.6127 6.08071L13.6432 5.48054ZM9.25183 10.2916H4.66683V11.375H9.25183V10.2916ZM4.0835 10.8333V19.5H5.25016V10.8333H4.0835ZM23.1142 20.0308L24.5142 13.5308L23.3708 13.3185L21.9708 19.8185L23.1142 20.0308ZM10.7078 9.56796C10.548 9.79055 10.3315 9.97306 10.0775 10.0993C9.82355 10.2255 9.53992 10.2916 9.25183 10.2916V11.375C9.73194 11.375 10.2046 11.2649 10.628 11.0546C11.0513 10.8442 11.4121 10.5401 11.6785 10.1692L10.7078 9.56796ZM19.0157 5.68421C19.0575 5.45144 19.0443 5.213 18.9768 4.98546C18.9094 4.75793 18.7894 4.54677 18.6252 4.36665C18.461 4.18654 18.2565 4.0418 18.0259 3.94249C17.7954 3.84319 17.5443 3.79171 17.2902 3.79163V4.87496C17.3749 4.87484 17.4587 4.89188 17.5357 4.92489C17.6126 4.9579 17.6809 5.00609 17.7358 5.0661C17.7906 5.12612 17.8308 5.19652 17.8533 5.27239C17.8759 5.34827 17.8804 5.42781 17.8665 5.50546L19.0157 5.68421ZM21.6535 11.375C21.9124 11.3749 22.1681 11.4283 22.4021 11.5311C22.6361 11.6339 22.8427 11.7837 23.0069 11.9696C23.171 12.1555 23.2887 12.3729 23.3514 12.6062C23.4142 12.8394 23.4216 13.0827 23.3708 13.3185L24.5142 13.5308C24.5987 13.138 24.5872 12.7327 24.4828 12.3441C24.3783 11.9555 24.1823 11.5932 23.9089 11.2834C23.6355 10.9736 23.2915 10.7239 22.9017 10.5524C22.5119 10.3809 22.086 10.2919 21.6547 10.2916L21.6535 11.375ZM20.2535 22.2083C20.9279 22.2084 21.5815 21.9915 22.1031 21.5945C22.6247 21.1975 22.982 20.6449 23.1142 20.0308L21.9708 19.8185C21.8915 20.1871 21.677 20.5187 21.3638 20.757C21.0507 20.9952 20.6583 21.1252 20.2535 21.125V22.2083ZM17.0405 3.79163C16.3681 3.79153 15.706 3.94565 15.1131 4.24028C14.5202 4.53492 14.0149 4.96095 13.642 5.48054L14.6127 6.08071C14.879 5.70979 15.2399 5.40567 15.6632 5.19534C16.0865 4.985 16.5592 4.87495 17.0393 4.87496L17.0405 3.79163ZM7.00016 21.125C6.53603 21.125 6.09091 20.9538 5.76273 20.649C5.43454 20.3443 5.25016 19.9309 5.25016 19.5H4.0835C4.0835 19.8556 4.15894 20.2078 4.30551 20.5364C4.45209 20.865 4.66693 21.1635 4.93777 21.415C5.20861 21.6665 5.53014 21.866 5.884 22.0021C6.23787 22.1382 6.61714 22.2083 7.00016 22.2083V21.125Z" fill="black"/>
<path d="M9.3335 10.8333V21.6666" stroke="black"/>
</svg>
